<svg width="1200" height="800" xmlns="http://www.w3.org/2000/svg">
  <!-- Enhanced Welcome Screen Background -->
  
  <!-- Gradient Background -->
  <defs>
    <linearGradient id="bgGradient" x1="0%" y1="0%" x2="100%" y2="100%">
      <stop offset="0%" stop-color="#e94057" stop-opacity="0.8" />
      <stop offset="50%" stop-color="#f27121" stop-opacity="0.6" />
      <stop offset="100%" stop-color="#6c5ce7" stop-opacity="0.7" />
    </linearGradient>
    
    <radialGradient id="glowEffect" cx="50%" cy="50%" r="50%" fx="50%" fy="50%">
      <stop offset="0%" stop-color="#ffffff" stop-opacity="0.2" />
      <stop offset="100%" stop-color="#000000" stop-opacity="0.1" />
    </radialGradient>
    
    <filter id="softBlur" x="-50%" y="-50%" width="200%" height="200%">
      <feGaussianBlur in="SourceGraphic" stdDeviation="15" />
    </filter>
    
    <pattern id="pattern1" width="50" height="50" patternUnits="userSpaceOnUse">
      <circle cx="25" cy="25" r="1" fill="#fff" opacity="0.5" />
    </pattern>
    
    <pattern id="pattern2" width="100" height="100" patternUnits="userSpaceOnUse">
      <circle cx="10" cy="10" r="1.5" fill="#fff" opacity="0.3" />
      <circle cx="50" cy="50" r="1" fill="#fff" opacity="0.4" />
      <circle cx="80" cy="20" r="2" fill="#fff" opacity="0.2" />
      <circle cx="30" cy="70" r="1.2" fill="#fff" opacity="0.3" />
    </pattern>
  </defs>
  
  <!-- Main Background -->
  <rect width="1200" height="800" fill="url(#bgGradient)" />
  <rect width="1200" height="800" fill="url(#glowEffect)" />
  
  <!-- Decorative Elements -->
  <rect width="1200" height="800" fill="url(#pattern1)" />
  <rect width="1200" height="800" fill="url(#pattern2)" opacity="0.6" />
  
  <!-- Abstract Shapes with Blur Effect -->
  <g filter="url(#softBlur)">
    <circle cx="200" cy="150" r="100" fill="#fff" opacity="0.15" />
    <circle cx="1000" cy="650" r="150" fill="#fff" opacity="0.15" />
    <ellipse cx="300" cy="700" rx="200" ry="100" fill="#e94057" opacity="0.1" />
    <ellipse cx="900" cy="200" rx="150" ry="80" fill="#6c5ce7" opacity="0.1" />
  </g>
  
  <!-- Flowing Lines -->
  <path d="M0 400 Q 300 300, 600 400 T 1200 400" stroke="#fff" stroke-width="2" fill="none" opacity="0.2" />
  <path d="M0 500 Q 300 600, 600 500 T 1200 500" stroke="#fff" stroke-width="2" fill="none" opacity="0.2" />
  <path d="M0 300 Q 400 350, 800 300 T 1200 300" stroke="#fff" stroke-width="1.5" fill="none" opacity="0.15" />
  <path d="M0 600 Q 400 550, 800 600 T 1200 600" stroke="#fff" stroke-width="1.5" fill="none" opacity="0.15" />
  
  <!-- Book/Story Elements -->
  <path d="M600 250 L 650 200 L 700 250 L 650 300 Z" fill="#fff" opacity="0.3" />
  <path d="M500 550 L 550 500 L 600 550 L 550 600 Z" fill="#fff" opacity="0.3" />
  <path d="M700 550 L 750 500 L 800 550 L 750 600 Z" fill="#fff" opacity="0.3" />
  
  <!-- Light Rays -->
  <g opacity="0.1" filter="url(#softBlur)">
    <path d="M600 0 L 700 800" stroke="#ffffff" stroke-width="80" />
    <path d="M600 0 L 500 800" stroke="#ffffff" stroke-width="60" />
    <path d="M600 0 L 900 800" stroke="#ffffff" stroke-width="40" />
    <path d="M600 0 L 300 800" stroke="#ffffff" stroke-width="50" />
  </g>
  
  <!-- Subtle Border Frame -->
  <rect x="10" y="10" width="1180" height="780" stroke="#ffffff" stroke-width="1" fill="none" opacity="0.2" rx="5" ry="5" />
</svg>