<svg width="1200" height="800" xmlns="http://www.w3.org/2000/svg">
  <!-- Welcome Screen Background -->
  
  <!-- Gradient Background -->
  <defs>
    <linearGradient id="bgGradient" x1="0%" y1="0%" x2="100%" y2="100%">
      <stop offset="0%" stop-color="#e94057" stop-opacity="0.8" />
      <stop offset="50%" stop-color="#f27121" stop-opacity="0.6" />
      <stop offset="100%" stop-color="#6c5ce7" stop-opacity="0.7" />
    </linearGradient>
    
    <pattern id="pattern1" width="50" height="50" patternUnits="userSpaceOnUse">
      <circle cx="25" cy="25" r="1" fill="#fff" opacity="0.5" />
    </pattern>
  </defs>
  
  <!-- Main Background -->
  <rect width="1200" height="800" fill="url(#bgGradient)" />
  
  <!-- Decorative Elements -->
  <rect width="1200" height="800" fill="url(#pattern1)" />
  
  <!-- Abstract Shapes -->
  <circle cx="200" cy="150" r="100" fill="#fff" opacity="0.1" />
  <circle cx="1000" cy="650" r="150" fill="#fff" opacity="0.1" />
  
  <!-- Flowing Lines -->
  <path d="M0 400 Q 300 300, 600 400 T 1200 400" stroke="#fff" stroke-width="2" fill="none" opacity="0.2" />
  <path d="M0 500 Q 300 600, 600 500 T 1200 500" stroke="#fff" stroke-width="2" fill="none" opacity="0.2" />
  
  <!-- Book/Story Elements -->
  <path d="M600 250 L 650 200 L 700 250 L 650 300 Z" fill="#fff" opacity="0.3" />
  <path d="M500 550 L 550 500 L 600 550 L 550 600 Z" fill="#fff" opacity="0.3" />
  <path d="M700 550 L 750 500 L 800 550 L 750 600 Z" fill="#fff" opacity="0.3" />
</svg>